<svg width="163" height="32" viewBox="0 0 163 32" fill="none" xmlns="http://www.w3.org/2000/svg">
<g clip-path="url(#clip0_591_6)">
<path d="M6.76031 30.675L15.9729 16.5852L25.1854 30.675H6.76031Z" fill="#AE938D"/>
<path d="M15.9729 16.5852H9.25318L15.9729 5.74698V5.69281L24.5893 19.349H24.5351L23.0178 20.8664L21.9339 19.7825L20.8501 20.8664L19.7663 19.7825L18.7908 20.7579L15.9729 16.5852ZM0.257385 30.675H6.76034L6.32679 27.857L5.67649 28.5073L4.59271 27.4235L3.50886 28.5073L2.37085 27.3693H2.31668L0.257385 30.675ZM29.5749 27.3693L28.4369 28.5073L27.3531 27.4235L26.2692 28.5073L25.1854 27.4235L23.9389 28.6699H23.8848L25.1854 30.6208H31.6883L29.5749 27.3693Z" fill="#445E3D"/>
<path d="M5.45972 22.3295L6.32676 27.857L5.67647 28.5073L4.59268 27.4235L3.50884 28.5073L2.37082 27.3693H2.31665L5.45972 22.3295ZM24.5893 19.4032L29.6291 27.3693L28.491 28.5073L27.4072 27.4235L26.3233 28.5073L25.2395 27.4235L23.9931 28.6699H23.9389L18.7907 20.8122L19.7662 19.8367L20.85 20.9206L21.9339 19.8367L23.0177 20.9206L24.5893 19.4032Z" fill="#A8C7B5"/>
<path d="M9.25318 16.5852H4.59271L5.45975 22.3295L6.32685 27.857L6.76034 30.675L15.9729 16.5852H9.25318Z" fill="#445E3D"/>
<path d="M6.76033 30.9459H0.257372C0.148968 30.9459 0.0406276 30.8918 0.0406276 30.7834C-0.0135425 30.6749 -0.0135425 30.5666 0.0406276 30.5124L3.56308 24.9307C3.61725 24.8223 3.83406 24.7681 3.9424 24.8223C4.05074 24.8765 4.10497 25.0933 4.0508 25.2016L2.75021 27.2609L3.56308 28.0738L4.43012 27.2067C4.53853 27.0983 4.7011 27.0983 4.80944 27.2067L5.67648 28.0738L6.0558 27.6944L4.32178 16.5852C4.32178 16.531 4.32178 16.4226 4.37595 16.3684C4.43012 16.3143 4.48436 16.26 4.5927 16.26H13.2633C13.4259 16.26 13.5343 16.3684 13.5343 16.531C13.5343 16.6936 13.4259 16.802 13.2633 16.802H4.91791L6.92296 29.8621L15.702 16.4226V6.55984L10.7163 14.4718C10.6622 14.5802 10.4454 14.6344 10.337 14.5802C10.2286 14.526 10.1744 14.3092 10.2286 14.2009L15.5936 5.63863L12.9924 1.46588C12.9382 1.35748 12.9382 1.1949 13.1008 1.08656C13.2092 1.03239 13.3718 1.03239 13.4801 1.19497L15.702 4.71742V1.41165C15.702 1.24907 15.8104 1.14067 15.9729 1.14067C16.1355 1.14067 16.2439 1.24907 16.2439 1.41165V4.77153L18.4658 1.24907C18.5199 1.14067 18.7368 1.0865 18.8451 1.14067C18.9535 1.19484 19.0077 1.41165 18.9535 1.51999L16.3523 5.69274L31.9594 30.5124C32.0136 30.6208 32.0136 30.6749 31.9594 30.7834C31.9052 30.8918 31.7968 30.9459 31.7427 30.9459H25.2397C25.1313 30.9459 25.0771 30.8918 25.023 30.8375L16.0271 17.0729L7.03137 30.8375C7.03137 30.8375 7.03137 30.8375 7.03137 30.8917C7.03137 30.8917 7.03137 30.9459 6.9772 30.9459C6.86873 30.9459 6.81456 30.9459 6.76033 30.9459ZM25.348 30.404H31.2006L29.5749 27.8028L28.6536 28.7241C28.5452 28.8325 28.3827 28.8325 28.2743 28.7241L27.4073 27.857L26.5402 28.7241C26.4318 28.8325 26.2693 28.8325 26.1609 28.7241L25.2939 27.857L24.3726 28.7783L25.348 30.404ZM0.745093 30.404H6.43518L6.11003 28.4531L5.83905 28.7241C5.73065 28.8325 5.56808 28.8325 5.45974 28.7241L4.5927 27.857L3.72566 28.724C3.67149 28.7782 3.61725 28.7782 3.50891 28.7782C3.45474 28.7782 3.34634 28.724 3.29217 28.724L2.3709 27.8027L0.745093 30.404ZM19.1159 20.8663L23.939 28.2906L24.9686 27.261C25.077 27.1526 25.2396 27.1526 25.3479 27.261L26.215 28.128L27.082 27.261C27.1904 27.1526 27.353 27.1526 27.4613 27.261L28.3284 28.128L29.1412 27.3151L24.4266 19.8367L23.126 21.1373C23.0176 21.2457 22.855 21.2457 22.7467 21.1373L21.8796 20.2703L21.0126 21.1373C20.9042 21.2457 20.7416 21.2457 20.6333 21.1373L19.7662 20.2703L19.1159 20.8663ZM21.9339 19.5658C21.9881 19.5658 22.0965 19.5658 22.1507 19.6199L23.0177 20.487L24.2099 19.2948L16.2438 6.61401V16.4768L18.7908 20.3786L19.5495 19.6199C19.6579 19.5115 19.8205 19.5115 19.9288 19.6199L20.7959 20.487L21.6629 19.6199C21.7714 19.5658 21.8797 19.5658 21.9339 19.5658Z" fill="#51565F"/>
</g>
<path d="M40.66 16.96C40.66 15.5733 40.96 14.34 41.56 13.26C42.16 12.1667 42.9933 11.32 44.06 10.72C45.14 10.1067 46.36 9.8 47.72 9.8C49.3867 9.8 50.8133 10.24 52 11.12C53.1867 12 53.98 13.2 54.38 14.72H50.62C50.34 14.1333 49.94 13.6867 49.42 13.38C48.9133 13.0733 48.3333 12.92 47.68 12.92C46.6267 12.92 45.7733 13.2867 45.12 14.02C44.4667 14.7533 44.14 15.7333 44.14 16.96C44.14 18.1867 44.4667 19.1667 45.12 19.9C45.7733 20.6333 46.6267 21 47.68 21C48.3333 21 48.9133 20.8467 49.42 20.54C49.94 20.2333 50.34 19.7867 50.62 19.2H54.38C53.98 20.72 53.1867 21.92 52 22.8C50.8133 23.6667 49.3867 24.1 47.72 24.1C46.36 24.1 45.14 23.8 44.06 23.2C42.9933 22.5867 42.16 21.74 41.56 20.66C40.96 19.58 40.66 18.3467 40.66 16.96ZM55.7944 18.4C55.7944 17.2533 56.0077 16.2467 56.4344 15.38C56.8744 14.5133 57.4677 13.8467 58.2144 13.38C58.961 12.9133 59.7944 12.68 60.7144 12.68C61.501 12.68 62.1877 12.84 62.7744 13.16C63.3744 13.48 63.8344 13.9 64.1544 14.42V12.84H67.5744V24H64.1544V22.42C63.821 22.94 63.3544 23.36 62.7544 23.68C62.1677 24 61.481 24.16 60.6944 24.16C59.7877 24.16 58.961 23.9267 58.2144 23.46C57.4677 22.98 56.8744 22.3067 56.4344 21.44C56.0077 20.56 55.7944 19.5467 55.7944 18.4ZM64.1544 18.42C64.1544 17.5667 63.9144 16.8933 63.4344 16.4C62.9677 15.9067 62.3944 15.66 61.7144 15.66C61.0344 15.66 60.4544 15.9067 59.9744 16.4C59.5077 16.88 59.2744 17.5467 59.2744 18.4C59.2744 19.2533 59.5077 19.9333 59.9744 20.44C60.4544 20.9333 61.0344 21.18 61.7144 21.18C62.3944 21.18 62.9677 20.9333 63.4344 20.44C63.9144 19.9467 64.1544 19.2733 64.1544 18.42ZM84.2886 12.72C85.6753 12.72 86.7753 13.14 87.5886 13.98C88.4153 14.82 88.8286 15.9867 88.8286 17.48V24H85.4286V17.94C85.4286 17.22 85.2353 16.6667 84.8486 16.28C84.4753 15.88 83.9553 15.68 83.2886 15.68C82.6219 15.68 82.0953 15.88 81.7086 16.28C81.3353 16.6667 81.1486 17.22 81.1486 17.94V24H77.7486V17.94C77.7486 17.22 77.5553 16.6667 77.1686 16.28C76.7953 15.88 76.2753 15.68 75.6086 15.68C74.9419 15.68 74.4153 15.88 74.0286 16.28C73.6553 16.6667 73.4686 17.22 73.4686 17.94V24H70.0486V12.84H73.4686V14.24C73.8153 13.7733 74.2686 13.4067 74.8286 13.14C75.3886 12.86 76.0219 12.72 76.7286 12.72C77.5686 12.72 78.3153 12.9 78.9686 13.26C79.6353 13.62 80.1553 14.1333 80.5286 14.8C80.9153 14.1867 81.4419 13.6867 82.1086 13.3C82.7753 12.9133 83.5019 12.72 84.2886 12.72ZM94.6405 14.42C94.9738 13.9 95.4338 13.48 96.0205 13.16C96.6071 12.84 97.2938 12.68 98.0805 12.68C99.0005 12.68 99.8338 12.9133 100.58 13.38C101.327 13.8467 101.914 14.5133 102.34 15.38C102.78 16.2467 103 17.2533 103 18.4C103 19.5467 102.78 20.56 102.34 21.44C101.914 22.3067 101.327 22.98 100.58 23.46C99.8338 23.9267 99.0005 24.16 98.0805 24.16C97.3071 24.16 96.6205 24 96.0205 23.68C95.4338 23.36 94.9738 22.9467 94.6405 22.44V29.32H91.2205V12.84H94.6405V14.42ZM99.5205 18.4C99.5205 17.5467 99.2805 16.88 98.8005 16.4C98.3338 15.9067 97.7538 15.66 97.0605 15.66C96.3805 15.66 95.8005 15.9067 95.3205 16.4C94.8538 16.8933 94.6205 17.5667 94.6205 18.42C94.6205 19.2733 94.8538 19.9467 95.3205 20.44C95.8005 20.9333 96.3805 21.18 97.0605 21.18C97.7405 21.18 98.3205 20.9333 98.8005 20.44C99.2805 19.9333 99.5205 19.2533 99.5205 18.4ZM109.335 24.16C108.361 24.16 107.495 23.9933 106.735 23.66C105.975 23.3267 105.375 22.8733 104.935 22.3C104.495 21.7133 104.248 21.06 104.195 20.34H107.575C107.615 20.7267 107.795 21.04 108.115 21.28C108.435 21.52 108.828 21.64 109.295 21.64C109.721 21.64 110.048 21.56 110.275 21.4C110.515 21.2267 110.635 21.0067 110.635 20.74C110.635 20.42 110.468 20.1867 110.135 20.04C109.801 19.88 109.261 19.7067 108.515 19.52C107.715 19.3333 107.048 19.14 106.515 18.94C105.981 18.7267 105.521 18.4 105.135 17.96C104.748 17.5067 104.555 16.9 104.555 16.14C104.555 15.5 104.728 14.92 105.075 14.4C105.435 13.8667 105.955 13.4467 106.635 13.14C107.328 12.8333 108.148 12.68 109.095 12.68C110.495 12.68 111.595 13.0267 112.395 13.72C113.208 14.4133 113.675 15.3333 113.795 16.48H110.635C110.581 16.0933 110.408 15.7867 110.115 15.56C109.835 15.3333 109.461 15.22 108.995 15.22C108.595 15.22 108.288 15.3 108.075 15.46C107.861 15.6067 107.755 15.8133 107.755 16.08C107.755 16.4 107.921 16.64 108.255 16.8C108.601 16.96 109.135 17.12 109.855 17.28C110.681 17.4933 111.355 17.7067 111.875 17.92C112.395 18.12 112.848 18.4533 113.235 18.92C113.635 19.3733 113.841 19.9867 113.855 20.76C113.855 21.4133 113.668 22 113.295 22.52C112.935 23.0267 112.408 23.4267 111.715 23.72C111.035 24.0133 110.241 24.16 109.335 24.16ZM125.087 9.96V12.7H119.367V15.66H123.647V18.32H119.367V24H115.947V9.96H125.087ZM137.905 12.84V24H134.485V22.48C134.138 22.9733 133.665 23.3733 133.065 23.68C132.478 23.9733 131.825 24.12 131.105 24.12C130.251 24.12 129.498 23.9333 128.845 23.56C128.191 23.1733 127.685 22.62 127.325 21.9C126.965 21.18 126.785 20.3333 126.785 19.36V12.84H130.185V18.9C130.185 19.6467 130.378 20.2267 130.765 20.64C131.151 21.0533 131.671 21.26 132.325 21.26C132.991 21.26 133.518 21.0533 133.905 20.64C134.291 20.2267 134.485 19.6467 134.485 18.9V12.84H137.905ZM147.161 12.72C148.468 12.72 149.508 13.1467 150.281 14C151.068 14.84 151.461 16 151.461 17.48V24H148.061V17.94C148.061 17.1933 147.868 16.6133 147.481 16.2C147.094 15.7867 146.574 15.58 145.921 15.58C145.268 15.58 144.748 15.7867 144.361 16.2C143.974 16.6133 143.781 17.1933 143.781 17.94V24H140.361V12.84H143.781V14.32C144.128 13.8267 144.594 13.44 145.181 13.16C145.768 12.8667 146.428 12.72 147.161 12.72ZM157.038 21.18H161.878V24H153.218V21.28L157.858 15.66H153.258V12.84H161.778V15.56L157.038 21.18Z" fill="black"/>
<defs>
<clipPath id="clip0_591_6">
<rect width="32" height="32" fill="white"/>
</clipPath>
</defs>
</svg>
