<svg width="215" height="31" viewBox="0 0 215 31" fill="none" xmlns="http://www.w3.org/2000/svg">
<path d="M120.688 18.096C119.579 18.096 118.576 17.8507 117.68 17.36C116.795 16.8693 116.096 16.192 115.584 15.328C115.083 14.4533 114.832 13.4773 114.832 12.4C114.832 11.3227 115.083 10.352 115.584 9.488C116.096 8.61333 116.8 7.93067 117.696 7.44C118.592 6.94933 119.595 6.704 120.704 6.704C121.536 6.704 122.304 6.84267 123.008 7.12C123.712 7.39733 124.309 7.80267 124.8 8.336L124.048 9.088C123.173 8.20267 122.069 7.76 120.736 7.76C119.851 7.76 119.045 7.96267 118.32 8.368C117.595 8.77333 117.024 9.328 116.608 10.032C116.203 10.736 116 11.5253 116 12.4C116 13.2747 116.203 14.064 116.608 14.768C117.024 15.472 117.595 16.0267 118.32 16.432C119.045 16.8373 119.851 17.04 120.736 17.04C122.08 17.04 123.184 16.592 124.048 15.696L124.8 16.448C124.309 16.9813 123.707 17.392 122.992 17.68C122.288 17.9573 121.52 18.096 120.688 18.096ZM129.903 9.52C131.002 9.52 131.844 9.79733 132.431 10.352C133.018 10.896 133.311 11.7067 133.311 12.784V18H132.223V16.688C131.967 17.1253 131.588 17.4667 131.087 17.712C130.596 17.9573 130.01 18.08 129.327 18.08C128.388 18.08 127.642 17.856 127.087 17.408C126.532 16.96 126.255 16.368 126.255 15.632C126.255 14.9173 126.511 14.3413 127.023 13.904C127.546 13.4667 128.372 13.248 129.503 13.248H132.175V12.736C132.175 12.0107 131.972 11.4613 131.567 11.088C131.162 10.704 130.57 10.512 129.791 10.512C129.258 10.512 128.746 10.6027 128.255 10.784C127.764 10.9547 127.343 11.1947 126.991 11.504L126.479 10.656C126.906 10.2933 127.418 10.016 128.015 9.824C128.612 9.62133 129.242 9.52 129.903 9.52ZM129.503 17.184C130.143 17.184 130.692 17.04 131.151 16.752C131.61 16.4533 131.951 16.0267 132.175 15.472V14.096H129.535C128.095 14.096 127.375 14.5973 127.375 15.6C127.375 16.0907 127.562 16.48 127.935 16.768C128.308 17.0453 128.831 17.184 129.503 17.184ZM146.893 9.52C147.949 9.52 148.775 9.824 149.373 10.432C149.981 11.04 150.285 11.936 150.285 13.12V18H149.149V13.232C149.149 12.3573 148.935 11.6907 148.509 11.232C148.093 10.7733 147.501 10.544 146.733 10.544C145.858 10.544 145.17 10.816 144.669 11.36C144.167 11.8933 143.917 12.6347 143.917 13.584V18H142.781V13.232C142.781 12.3573 142.567 11.6907 142.141 11.232C141.725 10.7733 141.127 10.544 140.349 10.544C139.485 10.544 138.797 10.816 138.285 11.36C137.783 11.8933 137.533 12.6347 137.533 13.584V18H136.397V9.584H137.485V11.12C137.783 10.608 138.199 10.2133 138.733 9.936C139.266 9.65867 139.879 9.52 140.573 9.52C141.277 9.52 141.885 9.66933 142.397 9.968C142.919 10.2667 143.309 10.7093 143.565 11.296C143.874 10.7413 144.317 10.3093 144.893 10C145.479 9.68 146.146 9.52 146.893 9.52ZM157.701 9.52C158.491 9.52 159.205 9.70133 159.845 10.064C160.485 10.416 160.987 10.9173 161.349 11.568C161.712 12.2187 161.893 12.96 161.893 13.792C161.893 14.6347 161.712 15.3813 161.349 16.032C160.987 16.6827 160.485 17.1893 159.845 17.552C159.216 17.904 158.501 18.08 157.701 18.08C157.019 18.08 156.4 17.9413 155.845 17.664C155.301 17.376 154.853 16.96 154.501 16.416V21.104H153.365V9.584H154.453V11.248C154.795 10.6933 155.243 10.2667 155.797 9.968C156.363 9.66933 156.997 9.52 157.701 9.52ZM157.621 17.072C158.208 17.072 158.741 16.9387 159.221 16.672C159.701 16.3947 160.075 16.0053 160.341 15.504C160.619 15.0027 160.757 14.432 160.757 13.792C160.757 13.152 160.619 12.5867 160.341 12.096C160.075 11.5947 159.701 11.2053 159.221 10.928C158.741 10.6507 158.208 10.512 157.621 10.512C157.024 10.512 156.485 10.6507 156.005 10.928C155.536 11.2053 155.163 11.5947 154.885 12.096C154.619 12.5867 154.485 13.152 154.485 13.792C154.485 14.432 154.619 15.0027 154.885 15.504C155.163 16.0053 155.536 16.3947 156.005 16.672C156.485 16.9387 157.024 17.072 157.621 17.072ZM166.465 18.08C165.782 18.08 165.126 17.984 164.497 17.792C163.878 17.5893 163.393 17.3387 163.041 17.04L163.553 16.144C163.905 16.4213 164.348 16.6507 164.881 16.832C165.414 17.0027 165.969 17.088 166.545 17.088C167.313 17.088 167.878 16.9707 168.241 16.736C168.614 16.4907 168.801 16.1493 168.801 15.712C168.801 15.4027 168.7 15.1627 168.497 14.992C168.294 14.8107 168.038 14.6773 167.729 14.592C167.42 14.496 167.009 14.4053 166.497 14.32C165.814 14.192 165.265 14.064 164.849 13.936C164.433 13.7973 164.076 13.568 163.777 13.248C163.489 12.928 163.345 12.4853 163.345 11.92C163.345 11.216 163.638 10.64 164.225 10.192C164.812 9.744 165.628 9.52 166.673 9.52C167.217 9.52 167.761 9.59467 168.305 9.744C168.849 9.88267 169.297 10.0693 169.649 10.304L169.153 11.216C168.46 10.736 167.633 10.496 166.673 10.496C165.948 10.496 165.398 10.624 165.025 10.88C164.662 11.136 164.481 11.472 164.481 11.888C164.481 12.208 164.582 12.464 164.785 12.656C164.998 12.848 165.26 12.992 165.569 13.088C165.878 13.1733 166.305 13.264 166.849 13.36C167.521 13.488 168.06 13.616 168.465 13.744C168.87 13.872 169.217 14.0907 169.505 14.4C169.793 14.7093 169.937 15.136 169.937 15.68C169.937 16.416 169.628 17.0027 169.009 17.44C168.401 17.8667 167.553 18.08 166.465 18.08ZM177.649 7.824V12.224H183.441V13.248H177.649V18H176.465V6.8H184.145V7.824H177.649ZM193.652 9.584V18H192.564V16.464C192.266 16.976 191.855 17.376 191.332 17.664C190.81 17.9413 190.212 18.08 189.54 18.08C188.442 18.08 187.572 17.776 186.932 17.168C186.303 16.5493 185.988 15.648 185.988 14.464V9.584H187.124V14.352C187.124 15.2373 187.343 15.9093 187.78 16.368C188.218 16.8267 188.842 17.056 189.652 17.056C190.538 17.056 191.236 16.7893 191.748 16.256C192.26 15.712 192.516 14.96 192.516 14V9.584H193.652ZM201.122 9.52C202.178 9.52 203.015 9.82933 203.634 10.448C204.263 11.056 204.578 11.9467 204.578 13.12V18H203.442V13.232C203.442 12.3573 203.223 11.6907 202.786 11.232C202.349 10.7733 201.725 10.544 200.914 10.544C200.007 10.544 199.287 10.816 198.754 11.36C198.231 11.8933 197.97 12.6347 197.97 13.584V18H196.834V9.584H197.922V11.136C198.231 10.624 198.658 10.2293 199.202 9.952C199.757 9.664 200.397 9.52 201.122 9.52ZM213.598 17.056V18H206.75V17.248L212.046 10.544H206.846V9.584H213.502V10.336L208.206 17.056H213.598Z" fill="white"/>
<g filter="url(#filter0_d_613_6)">
<path d="M46.125 2.08325H54.875C58.2083 2.08325 60.9166 4.79159 60.9166 8.12492V16.8749C60.9166 18.4773 60.2801 20.014 59.1471 21.147C58.0141 22.2801 56.4773 22.9166 54.875 22.9166H46.125C42.7916 22.9166 40.0833 20.2083 40.0833 16.8749V8.12492C40.0833 6.52257 40.7198 4.98585 41.8529 3.85282C42.9859 2.71978 44.5226 2.08325 46.125 2.08325ZM45.9166 4.16659C44.9221 4.16659 43.9683 4.56167 43.265 5.26494C42.5617 5.9682 42.1666 6.92202 42.1666 7.91659V17.0833C42.1666 19.1562 43.8437 20.8333 45.9166 20.8333H55.0833C56.0779 20.8333 57.0317 20.4382 57.735 19.7349C58.4382 19.0316 58.8333 18.0778 58.8333 17.0833V7.91659C58.8333 5.84367 57.1562 4.16659 55.0833 4.16659H45.9166ZM55.9687 5.72909C56.3141 5.72909 56.6453 5.86627 56.8894 6.11046C57.1336 6.35464 57.2708 6.68583 57.2708 7.03117C57.2708 7.3765 57.1336 7.70769 56.8894 7.95188C56.6453 8.19607 56.3141 8.33325 55.9687 8.33325C55.6234 8.33325 55.2922 8.19607 55.048 7.95188C54.8038 7.70769 54.6666 7.3765 54.6666 7.03117C54.6666 6.68583 54.8038 6.35464 55.048 6.11046C55.2922 5.86627 55.6234 5.72909 55.9687 5.72909ZM50.5 7.29159C51.8813 7.29159 53.2061 7.84032 54.1828 8.81707C55.1596 9.79382 55.7083 11.1186 55.7083 12.4999C55.7083 13.8813 55.1596 15.206 54.1828 16.1828C53.2061 17.1595 51.8813 17.7083 50.5 17.7083C49.1186 17.7083 47.7939 17.1595 46.8171 16.1828C45.8404 15.206 45.2916 13.8813 45.2916 12.4999C45.2916 11.1186 45.8404 9.79382 46.8171 8.81707C47.7939 7.84032 49.1186 7.29159 50.5 7.29159ZM50.5 9.37492C49.6712 9.37492 48.8763 9.70416 48.2903 10.2902C47.7042 10.8763 47.375 11.6711 47.375 12.4999C47.375 13.3287 47.7042 14.1236 48.2903 14.7096C48.8763 15.2957 49.6712 15.6249 50.5 15.6249C51.3288 15.6249 52.1236 15.2957 52.7097 14.7096C53.2957 14.1236 53.625 13.3287 53.625 12.4999C53.625 11.6711 53.2957 10.8763 52.7097 10.2902C52.1236 9.70416 51.3288 9.37492 50.5 9.37492Z" fill="white"/>
</g>
<path d="M12.5 21.875C13.7311 21.875 14.9502 21.6325 16.0877 21.1614C17.2251 20.6902 18.2586 19.9997 19.1291 19.1291C19.9997 18.2586 20.6902 17.2251 21.1614 16.0877C21.6325 14.9502 21.875 13.7311 21.875 12.5C21.875 11.2689 21.6325 10.0498 21.1614 8.91234C20.6902 7.77492 19.9997 6.74142 19.1291 5.87087C18.2586 5.00032 17.2251 4.30977 16.0877 3.83863C14.9502 3.36749 13.7311 3.125 12.5 3.125C10.0136 3.125 7.62903 4.11272 5.87087 5.87087C4.11272 7.62903 3.125 10.0136 3.125 12.5C3.125 14.9864 4.11272 17.371 5.87087 19.1291C7.62903 20.8873 10.0136 21.875 12.5 21.875ZM12.5 21.875V10.4167C12.5 9.86413 12.7195 9.33423 13.1102 8.94353C13.5009 8.55283 14.0308 8.33333 14.5833 8.33333H15.625M15.1042 13.0208H9.89583" stroke="white" stroke-width="2" stroke-linecap="round" stroke-linejoin="round"/>
<g clip-path="url(#clip0_613_6)">
<path fill-rule="evenodd" clip-rule="evenodd" d="M94.5589 7.28021C94.1912 6.75104 93.2079 6.00729 91.6152 6.32813C90.686 6.51459 90.1308 6.97396 89.7777 7.58021C89.4016 8.22604 89.2193 9.10417 89.2193 10.126C89.2193 10.4023 89.1096 10.6673 88.9142 10.8626C88.7189 11.058 88.4539 11.1677 88.1777 11.1677C85.7131 11.1677 83.3672 10.4354 81.3933 8.45521C81.2442 9.25864 81.1855 10.0762 81.2183 10.8927C81.2735 12.024 81.5433 13.1583 82.1839 14.1302C82.8141 15.0854 83.8506 15.9604 85.5839 16.5104C85.7537 16.5643 85.9069 16.6608 86.0288 16.7908C86.1507 16.9208 86.2372 17.0799 86.28 17.2528C86.3229 17.4258 86.3207 17.6069 86.2735 17.7787C86.2264 17.9506 86.136 18.1074 86.011 18.2344C85.4558 18.8038 84.8265 19.2961 84.1402 19.6979C85.2443 19.8125 86.3089 19.8208 87.2964 19.7313C89.2964 19.55 90.8891 18.9781 91.8849 18.1688C93.9818 16.4688 95.1037 13.9333 94.8954 9.68542C94.8599 8.9875 95.5339 8.23438 95.8589 7.6625C95.3683 7.75417 94.8766 7.7375 94.5589 7.28021ZM80.7849 5.19167C80.9735 5.16975 81.1645 5.1998 81.3373 5.27856C81.5101 5.35732 81.658 5.4818 81.7652 5.63854C83.3027 7.8875 85.1485 8.82292 87.1974 9.03542C87.2974 8.15938 87.5339 7.29375 87.9787 6.53125C88.6308 5.4125 89.6912 4.58959 91.2058 4.28542C93.2995 3.86459 94.8933 4.62292 95.8172 5.55104L97.6839 5.20209C97.8792 5.16549 98.081 5.18553 98.2653 5.25984C98.4496 5.33416 98.6088 5.45965 98.7241 5.62151C98.8394 5.78337 98.906 5.97483 98.9161 6.17331C98.9261 6.37179 98.8792 6.569 98.7808 6.74167L96.9891 9.88959C97.1527 14.4323 95.8902 17.6031 93.1985 19.7875C91.7714 20.9458 89.7277 21.6031 87.4849 21.8063C85.2245 22.0104 82.6693 21.7635 80.1297 21.0219C79.9127 20.9586 79.7222 20.8264 79.5869 20.6454C79.4517 20.4643 79.3789 20.2441 79.3798 20.0181C79.3806 19.7921 79.4549 19.5724 79.5915 19.3924C79.7281 19.2123 79.9196 19.0815 80.137 19.0198C81.4141 18.6563 82.387 18.3427 83.2652 17.7938C82.0162 17.1313 81.0964 16.2646 80.4454 15.2771C79.5412 13.9042 79.2058 12.3729 79.1391 10.9927C79.0724 9.6125 79.2714 8.33334 79.4818 7.41146C79.6016 6.88542 79.7412 6.35834 79.9339 5.85417C80.0019 5.67645 80.1172 5.52074 80.2674 5.40395C80.4177 5.28716 80.596 5.21374 80.7849 5.19167Z" fill="white"/>
</g>
<defs>
<filter id="filter0_d_613_6" x="34" y="0" width="33" height="33" filterUnits="userSpaceOnUse" color-interpolation-filters="sRGB">
<feFlood flood-opacity="0" result="BackgroundImageFix"/>
<feColorMatrix in="SourceAlpha" type="matrix" values="0 0 0 0 0 0 0 0 0 0 0 0 0 0 0 0 0 0 127 0" result="hardAlpha"/>
<feOffset dy="4"/>
<feGaussianBlur stdDeviation="2"/>
<feComposite in2="hardAlpha" operator="out"/>
<feColorMatrix type="matrix" values="0 0 0 0 0 0 0 0 0 0 0 0 0 0 0 0 0 0 0.25 0"/>
<feBlend mode="normal" in2="BackgroundImageFix" result="effect1_dropShadow_613_6"/>
<feBlend mode="normal" in="SourceGraphic" in2="effect1_dropShadow_613_6" result="shape"/>
</filter>
<clipPath id="clip0_613_6">
<rect width="25" height="25" fill="white" transform="translate(76)"/>
</clipPath>
</defs>
</svg>
