<?xml version="1.0" encoding="iso-8859-1"?>
<!-- Uploaded to: SVG Repo, www.svgrepo.com, Generator: SVG Repo Mixer Tools -->
<svg height="800px" width="800px" version="1.1" id="Layer_1" xmlns="http://www.w3.org/2000/svg" xmlns:xlink="http://www.w3.org/1999/xlink" 
	 viewBox="0 0 512 512" xml:space="preserve">
<polygon style="fill:#CFF09E;" points="428.63,479.651 255.999,178.304 83.367,479.651 "/>
<g>
	<path style="fill:#507C5C;" d="M510.116,472.741L358.574,215.099c-3.817-6.49-12.17-8.656-18.66-4.839
		c-6.489,3.817-8.656,12.171-4.838,18.66l151.542,257.642c2.54,4.318,7.09,6.723,11.763,6.723c2.349,0,4.727-0.607,6.899-1.884
		C511.767,487.584,513.933,479.23,510.116,472.741z"/>
	<path style="fill:#507C5C;" d="M442.161,478.055c-0.016-0.136-0.042-0.27-0.061-0.405c-0.061-0.418-0.142-0.83-0.24-1.235
		c-0.033-0.136-0.067-0.271-0.105-0.406c-0.131-0.473-0.284-0.938-0.463-1.389c-0.02-0.05-0.035-0.101-0.056-0.151
		c-0.214-0.519-0.461-1.02-0.735-1.504c-0.016-0.029-0.027-0.06-0.044-0.089L267.826,171.528c-2.428-4.239-6.941-6.855-11.828-6.855
		s-9.4,2.616-11.828,6.855L75.466,466.021H37.463L255.999,94.479l34.975,59.464c3.817,6.49,12.17,8.656,18.66,4.839
		c6.489-3.817,8.656-12.171,4.838-18.66l-42.529-72.305l17.031-28.472c3.865-6.461,1.76-14.831-4.7-18.695
		c-6.463-3.866-14.834-1.757-18.697,4.701l-9.579,16.016l-9.579-16.016c-3.863-6.46-12.231-8.566-18.697-4.701
		c-6.46,3.865-8.565,12.236-4.7,18.695l17.031,28.472L1.882,472.741c-2.48,4.215-2.511,9.434-0.085,13.679
		c2.428,4.245,6.944,6.863,11.833,6.863h69.736H428.63c0.559,0,1.107-0.044,1.648-0.109c0.144-0.018,0.288-0.044,0.431-0.065
		c0.418-0.064,0.83-0.146,1.235-0.248c0.132-0.033,0.264-0.064,0.395-0.101c0.508-0.143,1.009-0.309,1.491-0.508
		c0.01-0.004,0.019-0.007,0.029-0.011c0.507-0.211,0.996-0.457,1.471-0.725c0.106-0.06,0.207-0.127,0.312-0.189
		c0.359-0.215,0.705-0.446,1.04-0.692c0.123-0.09,0.245-0.179,0.364-0.273c0.383-0.301,0.752-0.619,1.1-0.96
		c0.033-0.033,0.069-0.06,0.102-0.093c0.378-0.376,0.725-0.78,1.058-1.198c0.087-0.11,0.169-0.226,0.254-0.339
		c0.26-0.352,0.504-0.714,0.732-1.091c0.041-0.067,0.09-0.125,0.13-0.194c0.02-0.035,0.034-0.074,0.055-0.109
		c0.277-0.485,0.528-0.984,0.744-1.505c0.005-0.012,0.008-0.025,0.014-0.035c0.199-0.485,0.365-0.986,0.508-1.497
		c0.037-0.131,0.068-0.263,0.101-0.395c0.1-0.402,0.181-0.81,0.244-1.225c0.022-0.143,0.048-0.285,0.065-0.429
		c0.06-0.493,0.097-0.994,0.101-1.502c0-0.04,0.005-0.079,0.005-0.119c0-0.007,0.001-0.012,0.001-0.019
		C442.261,479.111,442.222,478.58,442.161,478.055z M269.63,466.021V306.792c0-7.529-6.104-13.631-13.631-13.631
		c-7.527,0-13.631,6.103-13.631,13.631v159.229H106.885l149.114-260.293l149.114,260.293H269.63z"/>
</g>
</svg>